<svg width="528" height="730" viewBox="0 0 528 730" fill="none" xmlns="http://www.w3.org/2000/svg">
<g opacity="0.1">
<path d="M-620.884 122.85C-608.752 68.9481 -634.169 16.1565 -664.034 -27.2559C-698.123 -76.8072 -743.064 -124.375 -752.148 -186.178C-756.232 -213.965 -753.286 -244.173 -738.279 -268.472C-723.567 -292.291 -698.656 -306.437 -671.245 -310.124C-608.424 -318.573 -555.722 -278.536 -512.38 -238.275C-467.058 -196.175 -420.657 -146.88 -356.348 -137.442C-302.727 -129.573 -249.881 -148 -196.44 -148.789C-168.578 -149.201 -141.058 -143.96 -117.203 -128.968C-92.1915 -113.25 -73.2816 -89.8704 -55.889 -66.4119C-37.8869 -42.1322 -20.7198 -17.4355 0.0274519 4.65314C21.2022 27.1961 44.7249 47.45 69.4606 65.9801C174.22 144.456 299.947 191.278 399.099 277.737C441.702 314.885 478.381 359.94 501.298 411.905C522.578 460.161 533.015 517.292 516.187 568.471C508.717 591.19 496.071 613.123 477.049 628.069C454.192 646.029 425.923 648.549 398.4 641.186C369.593 633.48 343.134 618.36 313.601 613.133C287.435 608.502 260.957 613.211 236.416 622.739C184.405 642.933 142.921 681.868 93.2452 706.441C68.0612 718.899 40.3531 728.051 11.9306 726.609C-18.1394 725.085 -45.0524 711.115 -67.3335 691.479C-90.9247 670.687 -109.616 644.955 -128.174 619.769C-146.629 594.723 -165.788 570.349 -186.791 547.373C-229.299 500.871 -277.567 459.609 -330.149 424.901C-385.344 388.468 -446.658 362.737 -501.967 326.576C-549.001 295.825 -593.484 254.395 -613.843 200.742C-623.306 175.802 -626.189 148.917 -620.548 122.748C-620.146 120.882 -622.979 119.875 -623.387 121.764C-634.55 173.558 -612.542 223.832 -579.722 263.175C-538.596 312.476 -482.071 343.693 -426.149 373.261C-396.335 389.025 -366.61 404.887 -338.255 423.195C-310.415 441.172 -283.757 460.974 -258.489 482.415C-208.011 525.249 -165.365 574.5 -126.117 627.607C-92.3129 673.348 -51.9161 725.234 9.59901 729.479C65.0784 733.308 114.858 699.609 158.7 670.006C207.067 637.348 263.054 602.71 323.802 618.43C353.735 626.176 381.153 642.333 411.902 647.137C435.958 650.895 459.785 645.451 479.004 630.351C517.067 600.444 529.993 547.317 526.937 501.08C523.352 446.836 501.266 395.404 470.192 351.32C394.257 243.594 270.843 187.385 160.678 122.227C104.073 88.7476 48.5695 51.6708 3.17491 3.61872C-18.4758 -19.2997 -36.2117 -45.0577 -55.0107 -70.2565C-72.163 -93.2477 -90.9472 -116.015 -115.499 -131.445C-162.921 -161.247 -219.014 -151.061 -271.202 -143.672C-298.57 -139.797 -326.476 -136.466 -354.06 -140.148C-389.262 -144.848 -420.478 -162.615 -448.014 -184.28C-498.991 -224.388 -540.492 -281.247 -603.053 -304.571C-648.587 -321.546 -706.793 -317.742 -737.255 -275.428C-770.29 -229.54 -757.253 -166.543 -731.892 -120.615C-702.065 -66.5992 -655.876 -22.748 -633.003 35.2702C-622.155 62.7858 -617.155 92.6885 -623.722 121.866C-624.141 123.731 -621.308 124.736 -620.884 122.85Z" fill="url(#paint0_linear_142_3190)"/>
<path d="M-648.771 -285.97C-588.666 -293.978 -538.306 -255.591 -496.856 -217.069C-453.551 -176.824 -409.169 -129.794 -347.699 -120.842C-296.429 -113.376 -245.912 -131.003 -194.812 -131.714C-168.163 -132.085 -141.868 -127.024 -119.081 -112.647C-95.1897 -97.5741 -77.1321 -75.1916 -60.5043 -52.7535C-43.3095 -29.549 -26.8889 -5.96648 -7.05379 15.1276C13.2018 36.6682 35.6988 56.0212 59.3516 73.7285C159.495 148.695 279.655 193.455 374.397 276.111C415.118 311.638 450.173 354.723 472.058 404.416C492.377 450.552 502.316 505.162 486.181 554.066C479.017 575.78 466.897 596.737 448.674 610.984C426.751 628.122 399.685 630.389 373.368 623.293C345.838 615.871 320.52 601.424 292.259 596.516C267.291 592.175 242.043 596.716 218.642 605.821C168.931 625.168 129.27 662.397 81.7567 685.861C57.6591 697.76 31.1397 706.48 3.95449 705.034C-24.8244 703.504 -50.5469 690.04 -71.8309 671.2C-94.2949 651.322 -112.114 626.774 -129.82 602.747C-147.457 578.812 -165.778 555.527 -185.856 533.575C-226.492 489.145 -272.63 449.721 -322.887 416.559C-375.513 381.834 -434.254 357.178 -487.1 322.605C-532.099 293.167 -574.449 253.689 -593.881 202.251C-602.899 178.384 -605.641 152.66 -600.249 127.629C-599.865 125.847 -602.487 124.869 -602.933 126.562C-603.262 127.813 -603.595 129.1 -603.843 130.454C-612.664 178.605 -592.057 225.223 -561.56 261.94C-522.355 309.134 -468.303 338.989 -414.869 367.245C-386.357 382.322 -357.953 397.511 -330.843 414.995C-304.231 432.157 -278.736 451.047 -254.567 471.54C-206.302 512.465 -165.493 559.528 -127.979 610.295C-95.6744 654.011 -57.1349 703.645 1.61339 707.894C54.6538 711.733 102.338 679.577 144.257 651.271C190.472 620.064 243.988 586.794 302.07 601.697C330.716 609.045 356.931 624.507 386.323 629.163C409.334 632.808 432.146 627.698 450.584 613.299C487.015 584.842 499.5 534.084 496.657 489.921C493.32 438.048 472.281 388.846 442.62 346.656C370.157 243.587 252.217 189.775 146.895 127.522C92.726 95.505 39.5946 60.067 -3.8751 14.1261C-24.5955 -7.77258 -41.5761 -32.3827 -59.5435 -56.4846C-75.9407 -78.4795 -93.876 -100.272 -117.32 -115.082C-162.622 -143.701 -216.244 -134.072 -266.172 -126.996C-292.365 -123.284 -319.066 -120.069 -345.468 -123.558C-379.12 -128.007 -408.967 -144.941 -435.3 -165.634C-484.08 -203.964 -523.736 -258.324 -583.531 -280.705C-627.044 -296.992 -682.723 -293.438 -711.944 -253.065C-743.635 -209.28 -731.294 -149.006 -707.097 -105.073C-678.618 -53.364 -634.409 -11.429 -612.483 44.0513C-602.076 70.3868 -597.265 99.0131 -603.548 126.952C-603.967 128.817 -601.133 129.822 -600.709 127.936C-589.076 76.204 -613.331 26.0076 -641.953 -15.5771C-674.593 -63.0015 -717.503 -108.515 -726.191 -167.486C-730.111 -194.085 -727.289 -223.021 -712.886 -246.264C-698.794 -269.006 -674.967 -282.478 -648.771 -285.97Z" fill="url(#paint1_linear_142_3190)"/>
<path d="M-626.298 -261.818C-568.909 -269.385 -520.891 -232.645 -481.334 -195.865C-440.045 -157.474 -397.682 -112.709 -339.052 -104.243C-290.131 -97.1803 -241.944 -114.008 -193.185 -114.641C-167.751 -114.971 -142.682 -110.09 -120.962 -96.328C-98.1907 -81.8999 -80.9846 -60.5154 -65.1234 -39.097C-48.7349 -16.9677 -33.0626 5.49983 -14.1379 25.6011C5.19774 46.1394 26.669 64.5924 49.2405 81.4759C144.768 152.934 259.361 195.631 349.693 274.486C388.533 308.391 421.963 349.507 442.816 396.927C462.174 440.943 471.615 493.032 456.174 539.662C449.316 560.371 437.72 580.351 420.299 593.899C399.31 610.217 373.446 612.229 348.334 605.399C322.082 598.261 297.904 584.488 270.914 579.9C247.146 575.85 223.127 580.221 200.867 588.904C153.456 607.405 115.62 642.927 70.2669 665.282C47.2549 676.624 21.9252 684.91 -4.02183 683.462C-31.5105 681.925 -56.0417 668.967 -76.3276 650.924C-97.6636 631.958 -114.611 608.596 -131.464 585.727C-148.282 562.904 -165.767 540.708 -184.918 519.78C-223.683 477.422 -267.69 439.835 -315.622 408.22C-365.68 375.202 -421.845 351.621 -472.23 318.637C-515.194 290.51 -555.41 252.984 -573.915 203.762C-582.487 180.967 -585.089 156.406 -579.945 132.512C-579.579 130.814 -581.99 129.865 -582.474 131.36C-582.833 132.466 -583.22 133.643 -583.464 134.955C-591.968 180.946 -572.454 225.553 -543.395 260.704C-506.11 305.793 -454.53 334.287 -403.584 361.23C-376.375 375.62 -349.294 390.135 -323.426 406.794C-298.042 423.142 -273.711 441.121 -250.642 460.665C-204.589 499.68 -165.616 544.554 -129.837 592.98C-99.0318 634.674 -62.3514 682.054 -6.36903 686.306C44.2331 690.155 89.8228 659.543 129.816 632.533C173.878 602.776 224.925 570.873 280.34 584.96C307.698 591.912 332.71 606.677 360.747 611.185C382.711 614.718 404.508 609.941 422.164 596.245C456.963 569.237 469.007 520.85 466.378 478.759C463.29 429.257 443.298 382.284 415.049 341.989C346.058 243.577 233.592 192.161 133.113 132.814C81.3793 102.259 30.6211 68.4595 -10.9245 24.6291C-30.7146 3.75004 -46.9401 -19.7111 -64.0768 -42.717C-79.7178 -63.7157 -96.8043 -84.5332 -119.141 -98.7237C-162.324 -126.16 -213.474 -117.087 -261.144 -110.323C-286.159 -106.774 -311.657 -103.677 -336.878 -106.973C-368.979 -111.17 -397.457 -127.272 -422.587 -146.992C-469.17 -183.544 -506.981 -235.405 -564.01 -256.843C-605.504 -272.442 -658.654 -269.138 -686.634 -230.706C-716.979 -189.023 -705.334 -131.472 -682.303 -89.5354C-655.173 -40.1315 -612.941 -0.114458 -591.964 52.8297C-581.996 77.9851 -577.375 105.336 -583.374 132.035C-583.793 133.9 -580.959 134.905 -580.536 133.018C-569.402 83.4554 -592.495 35.8541 -619.871 -3.90099C-651.063 -49.1993 -691.942 -92.6586 -700.235 -148.797C-703.99 -174.209 -701.291 -201.873 -687.493 -224.06C-674.021 -245.722 -651.279 -258.523 -626.298 -261.818Z" fill="url(#paint2_linear_142_3190)"/>
<path d="M-603.825 -237.664C-549.151 -244.79 -503.474 -209.699 -465.811 -174.659C-426.539 -138.123 -386.193 -95.6215 -330.404 -87.6427C-283.832 -80.9836 -237.975 -97.0114 -191.557 -97.5654C-167.337 -97.8542 -143.492 -93.1529 -122.84 -80.0064C-101.188 -66.2244 -84.835 -45.837 -69.7385 -25.4374C-54.1572 -4.38323 -39.2315 16.9701 -21.2182 36.0777C-2.80159 55.6128 17.6431 73.1658 39.1326 89.2274C130.044 157.176 239.071 197.811 324.992 272.863C361.95 305.146 393.754 344.293 413.578 389.441C431.974 431.337 440.918 480.904 426.169 525.26C419.616 544.964 408.546 563.97 391.926 576.818C371.871 592.315 347.209 594.073 323.303 587.509C298.329 580.654 275.293 567.556 249.573 563.286C227.004 559.528 204.214 563.729 183.096 571.991C137.985 589.644 101.972 623.46 58.7803 644.707C36.8547 655.491 12.7137 663.344 -11.996 661.892C-38.1945 660.35 -61.5335 647.897 -80.8222 630.651C-101.03 612.598 -117.106 590.422 -133.106 568.711C-149.107 546.998 -165.753 525.891 -183.978 505.989C-220.871 465.703 -262.749 429.954 -308.357 399.884C-355.846 368.573 -409.437 346.066 -457.359 314.672C-498.289 287.858 -536.372 252.284 -553.95 205.278C-562.077 183.554 -564.537 160.156 -559.641 137.399C-559.294 135.786 -561.494 134.868 -562.016 136.164C-562.405 137.124 -562.846 138.192 -563.085 139.462C-571.273 183.293 -552.851 225.889 -525.229 259.475C-489.864 302.457 -440.758 329.589 -392.3 355.22C-366.393 368.922 -340.634 382.765 -316.01 398.599C-291.853 414.132 -268.687 431.199 -246.716 449.795C-202.875 486.901 -165.74 529.586 -131.695 575.672C-102.39 615.343 -67.5674 660.47 -14.3518 664.724C33.8113 668.584 77.3061 639.515 115.375 613.803C157.285 585.495 205.862 554.961 258.61 568.23C284.682 574.786 308.49 588.854 335.172 593.213C356.091 596.634 376.872 592.189 393.747 579.196C426.913 553.638 438.518 507.62 436.101 467.602C433.261 420.47 414.316 375.728 387.48 337.327C321.958 243.572 214.965 194.551 119.33 138.11C70.0323 109.016 21.6471 76.856 -17.9745 35.137C-36.835 15.2767 -52.3043 -7.03557 -68.6095 -28.9447C-83.4945 -48.9463 -99.733 -68.7891 -120.961 -82.3597C-162.024 -108.612 -210.703 -100.096 -256.113 -93.6454C-279.953 -90.2587 -304.247 -87.2794 -328.287 -90.3818C-358.838 -94.327 -385.947 -109.597 -409.873 -128.344C-454.259 -163.118 -490.225 -212.48 -544.487 -232.977C-583.96 -247.886 -634.584 -244.834 -661.322 -208.341C-690.323 -168.761 -679.373 -113.934 -657.507 -73.9924C-631.725 -26.8949 -591.474 11.2058 -571.444 61.612C-561.916 85.5882 -557.484 111.662 -563.199 137.123C-563.617 138.988 -560.783 139.993 -560.361 138.107C-549.724 90.7135 -571.656 45.7083 -597.787 7.7809C-627.53 -35.3905 -666.379 -76.7949 -674.277 -130.101C-677.867 -154.326 -675.291 -180.717 -662.097 -201.849C-649.248 -222.435 -627.591 -234.564 -603.825 -237.664Z" fill="url(#paint3_linear_142_3190)"/>
<path d="M-581.351 -213.511C-529.393 -220.195 -486.058 -186.754 -450.288 -153.454C-413.032 -118.772 -374.704 -78.5354 -321.756 -71.043C-277.533 -64.7862 -234.007 -80.0155 -189.929 -80.4915C-166.924 -80.7395 -144.305 -76.2176 -124.719 -63.685C-104.187 -50.5481 -88.6858 -31.1578 -74.3557 -11.7788C-59.5817 8.20021 -45.4025 28.4385 -28.3013 46.5525C-10.8038 65.0844 8.61421 81.7373 29.0216 96.976C115.318 161.416 218.777 199.989 300.289 271.239C335.365 301.9 365.544 339.078 384.336 381.952C401.77 421.729 410.217 468.775 396.16 510.856C389.914 529.555 379.369 547.584 363.548 559.734C344.428 574.41 320.968 575.913 298.267 569.616C274.57 563.044 252.675 550.621 228.226 546.669C206.857 543.201 185.296 547.233 165.319 555.073C122.509 571.88 88.3204 603.989 47.2889 624.127C26.4489 634.354 3.49758 641.774 -19.974 640.317C-44.8814 638.769 -67.0299 626.821 -85.3216 610.372C-104.402 593.231 -119.606 572.242 -134.752 551.689C-149.935 531.088 -165.744 511.07 -183.044 492.192C-218.066 453.977 -257.812 420.065 -301.095 391.542C-346.016 361.939 -397.033 340.507 -442.493 310.702C-481.389 285.199 -517.337 251.577 -533.989 206.787C-541.67 186.135 -543.989 163.9 -539.342 142.28C-539.013 140.751 -541.002 139.866 -541.562 140.961C-541.981 141.779 -542.476 142.734 -542.709 143.962C-550.582 185.633 -533.252 226.217 -507.068 258.238C-473.623 299.114 -426.99 324.884 -381.019 349.203C-356.415 362.219 -331.979 375.388 -308.597 390.397C-285.668 405.118 -263.667 421.271 -242.794 438.919C-201.166 474.117 -165.868 514.611 -133.558 558.358C-105.752 596.006 -72.7872 638.88 -22.3394 643.137C23.3847 647.008 64.7855 619.482 100.929 595.066C140.688 568.209 186.795 539.042 236.876 551.494C261.662 557.653 284.265 571.025 309.591 575.237C329.465 578.545 349.231 574.434 365.323 562.143C396.858 538.035 408.021 494.385 405.819 456.441C403.227 411.681 385.328 369.168 359.906 332.662C297.856 243.565 196.338 196.94 105.547 143.405C58.6849 115.773 12.672 85.2515 -25.0247 45.6429C-42.9548 26.8023 -57.6698 5.63893 -73.1427 -15.1742C-87.2725 -34.1795 -102.661 -53.0478 -122.782 -65.9984C-161.726 -91.0671 -207.933 -83.1091 -251.084 -76.9703C-273.748 -73.7465 -296.838 -70.8852 -319.697 -73.7933C-348.697 -77.4871 -374.437 -91.9247 -397.161 -109.699C-439.35 -142.694 -473.471 -189.558 -524.967 -209.112C-562.421 -223.333 -610.516 -220.532 -636.013 -185.979C-663.669 -148.501 -653.416 -96.3979 -632.714 -58.4515C-608.282 -13.6604 -570.008 22.5242 -550.927 70.3934C-541.838 93.1895 -537.596 117.987 -543.027 142.208C-543.444 144.073 -540.61 145.078 -540.188 143.193C-530.049 97.9688 -550.821 55.5587 -575.707 19.46C-604.002 -21.5845 -640.818 -60.9347 -648.322 -111.409C-651.749 -134.446 -649.296 -159.566 -636.705 -179.641C-624.474 -199.15 -603.903 -210.608 -581.351 -213.511Z" fill="url(#paint4_linear_142_3190)"/>
<path d="M-558.878 -189.359C-509.636 -195.603 -468.643 -163.81 -434.765 -132.249C-399.527 -99.4221 -363.216 -61.4497 -313.108 -54.4437C-271.235 -48.591 -230.038 -63.0199 -188.302 -63.4179C-166.51 -63.6251 -145.116 -59.2828 -126.598 -47.3658C-107.187 -34.8739 -92.5372 -16.4817 -78.9728 1.87765C-65.0052 20.7806 -51.5742 39.9047 -35.3834 57.0259C-18.8051 74.5554 -0.413709 90.3075 18.9115 104.723C100.591 165.654 198.485 202.165 275.586 269.612C308.781 298.651 337.335 333.861 355.096 374.462C371.569 412.119 379.516 456.644 366.155 496.451C360.214 514.146 350.194 531.199 335.174 542.648C316.988 556.504 294.731 557.753 273.236 551.722C250.816 545.434 230.062 533.685 206.884 530.053C186.714 526.875 166.382 530.738 147.547 538.156C107.037 554.116 74.6728 584.519 35.8012 603.548C16.0476 613.217 -5.71497 620.205 -27.9492 618.744C-51.5665 617.189 -72.5236 605.747 -89.8173 590.095C-107.77 573.867 -122.102 554.063 -136.395 534.669C-150.76 515.18 -165.732 496.251 -182.105 478.398C-215.255 442.254 -252.871 410.18 -293.831 383.203C-336.183 355.307 -384.625 334.95 -427.624 306.734C-464.484 282.545 -498.3 250.874 -514.024 208.299C-521.261 188.719 -523.439 167.647 -519.039 147.164C-518.729 145.718 -520.512 144.87 -521.105 145.761C-521.555 146.438 -522.102 147.279 -522.331 148.465C-529.887 187.978 -513.65 226.549 -488.902 257.004C-457.378 295.774 -413.219 320.182 -369.735 343.189C-346.433 355.517 -323.318 368.013 -301.181 382.199C-279.48 396.105 -258.643 411.346 -238.87 428.046C-199.455 461.334 -165.993 499.641 -135.417 541.047C-109.112 576.67 -78.0051 617.292 -30.3232 621.552C12.9626 625.433 52.2677 599.45 86.4875 576.331C124.093 550.924 167.731 523.125 215.146 534.76C238.645 540.523 260.044 553.198 284.015 557.263C302.843 560.458 321.593 556.68 336.904 545.092C366.807 522.434 377.53 481.154 375.54 445.282C373.196 402.892 356.345 362.61 332.336 327.997C273.758 243.558 177.714 199.329 91.7662 148.699C47.3393 122.53 3.69973 93.6475 -32.073 56.1493C-49.0727 38.3284 -63.0326 18.3138 -77.6748 -1.40334C-91.0485 -19.4124 -105.589 -37.3061 -124.602 -49.6358C-161.426 -73.521 -205.161 -66.1197 -246.054 -60.2939C-267.541 -57.2322 -289.427 -54.4888 -311.104 -57.2036C-338.554 -60.6459 -362.925 -74.2519 -384.446 -91.0523C-424.438 -122.269 -456.713 -166.635 -505.443 -185.246C-540.877 -198.778 -586.444 -196.228 -610.7 -163.616C-637.011 -128.24 -627.453 -78.8604 -607.916 -42.9091C-584.832 -0.424404 -548.539 33.8439 -530.405 79.176C-521.756 100.793 -517.703 124.314 -522.85 147.296C-523.266 149.161 -520.434 150.166 -520.011 148.28C-510.37 105.225 -529.981 65.4113 -553.621 31.1412C-580.468 -7.7772 -615.254 -45.0733 -622.362 -92.7145C-625.624 -114.564 -623.294 -138.412 -611.308 -157.431C-599.701 -175.865 -580.214 -186.651 -558.878 -189.359Z" fill="url(#paint5_linear_142_3190)"/>
<path d="M-536.405 -165.206C-489.878 -171.009 -451.227 -140.864 -419.243 -111.045C-386.021 -80.0721 -351.729 -44.3644 -304.461 -37.8449C-264.936 -32.3954 -226.07 -46.0257 -186.674 -46.3439C-166.097 -46.5104 -145.928 -42.3476 -128.477 -31.0453C-110.185 -19.1994 -96.3883 -1.80428 -83.5886 15.5354C-70.4282 33.3632 -57.7438 51.3731 -42.4643 67.5006C-26.8051 84.0269 -9.44026 98.879 8.80291 112.473C85.8663 169.895 178.194 204.342 250.884 267.988C282.198 295.405 309.127 328.645 325.856 366.973C341.367 402.51 348.817 444.514 336.149 482.047C330.514 498.737 321.018 514.813 306.799 525.563C289.547 538.598 268.492 539.592 248.203 533.828C227.061 527.823 207.447 516.749 185.54 513.436C166.568 510.549 147.466 514.243 129.771 521.238C91.5629 536.352 61.0213 565.048 24.3113 582.968C5.64328 592.08 -14.9297 598.634 -35.9258 597.17C-58.2528 595.609 -78.0177 584.673 -94.3143 569.817C-111.139 554.501 -124.598 535.884 -138.041 517.648C-151.587 499.27 -165.722 481.429 -181.17 464.601C-212.448 430.53 -247.934 400.293 -286.568 374.862C-326.351 348.673 -372.22 329.392 -412.756 302.764C-447.582 279.887 -479.263 250.168 -494.06 209.809C-500.851 191.301 -502.889 171.392 -498.737 152.046C-498.445 150.685 -500.027 149.871 -500.648 150.559C-501.136 151.097 -501.729 151.821 -501.953 152.967C-509.193 190.319 -494.048 226.879 -470.739 255.769C-441.134 292.433 -399.449 315.48 -358.452 337.174C-336.454 348.815 -314.66 360.637 -293.766 373.998C-273.293 387.09 -253.62 401.419 -234.946 417.171C-197.744 448.55 -166.118 484.667 -137.277 523.734C-112.471 557.334 -83.2227 595.702 -38.3076 599.965C2.53915 603.857 39.7494 579.418 72.0452 557.595C107.499 533.639 148.667 507.207 193.414 518.026C215.627 523.391 235.822 535.37 258.437 539.287C276.22 542.37 293.955 538.925 308.484 528.039C336.755 506.831 347.037 467.919 345.261 434.121C343.166 394.101 327.361 356.048 304.764 323.331C249.657 243.549 159.088 201.717 77.9838 153.992C35.9924 129.285 -5.27485 102.04 -39.1227 66.6526C-55.1921 49.8505 -68.3966 30.9848 -82.2073 12.3636C-94.8249 -4.64914 -108.518 -21.5674 -126.424 -33.278C-161.128 -55.9805 -202.391 -49.1359 -241.025 -43.6222C-261.336 -40.7236 -282.017 -38.0972 -302.514 -40.6187C-328.414 -43.8095 -351.415 -56.5831 -371.734 -72.4106C-409.529 -101.849 -439.959 -143.717 -485.923 -161.384C-519.337 -174.228 -562.377 -171.929 -585.391 -141.257C-610.358 -107.984 -601.496 -61.3269 -583.124 -27.3716C-561.389 12.8076 -527.074 45.1579 -509.888 87.953C-501.678 108.39 -497.815 130.634 -502.679 152.377C-503.095 154.242 -500.261 155.247 -499.84 153.36C-490.698 112.476 -509.146 75.2565 -531.542 42.8151C-556.939 6.02358 -589.694 -29.2184 -596.408 -74.0268C-599.506 -94.6891 -597.299 -117.265 -585.917 -135.228C-574.928 -152.579 -556.527 -162.694 -536.405 -165.206Z" fill="url(#paint6_linear_142_3190)"/>
<path d="M-513.931 -141.053C-470.12 -146.414 -433.81 -117.919 -403.719 -89.8394C-372.514 -60.7214 -340.24 -27.2786 -295.812 -21.2446C-258.637 -16.1983 -222.1 -29.0292 -185.046 -29.2694C-165.683 -29.3951 -146.74 -25.4117 -130.355 -14.7242C-113.184 -3.52344 -100.239 12.8737 -88.2055 29.1937C-75.8523 45.9463 -63.9154 62.8412 -49.5471 77.975C-34.8078 93.4991 -18.4688 107.451 -1.30772 120.221C71.1403 174.134 157.9 206.52 226.181 266.363C255.613 292.159 280.917 323.429 296.616 359.486C311.165 392.902 318.117 432.385 306.141 467.644C300.813 483.329 291.842 498.43 278.424 508.48C262.106 520.695 242.253 521.434 223.17 515.936C203.305 510.216 184.833 499.816 164.197 496.821C146.424 494.224 128.551 497.749 111.997 504.322C76.0895 518.589 47.3721 545.579 12.822 562.39C-4.75958 570.945 -24.1437 577.066 -43.9025 575.598C-64.9385 574.031 -83.5129 563.6 -98.8123 549.541C-114.51 535.137 -127.097 517.706 -139.686 500.629C-152.415 483.362 -165.711 466.61 -180.234 450.807C-209.64 418.807 -242.996 390.408 -279.306 366.524C-316.52 342.042 -359.814 323.835 -397.889 298.798C-430.68 277.232 -460.228 249.466 -474.098 211.323C-480.443 193.886 -482.341 175.14 -478.437 156.931C-478.163 155.653 -479.55 154.875 -480.194 155.36C-480.723 155.758 -481.359 156.368 -481.578 157.471C-488.501 192.663 -474.449 227.212 -452.578 254.536C-424.894 289.094 -385.681 310.779 -347.172 331.16C-326.476 342.114 -306.005 353.263 -286.355 365.799C-267.11 378.076 -248.601 391.494 -231.026 406.297C-196.036 435.767 -166.247 469.694 -139.141 506.422C-115.835 537.999 -88.4448 574.114 -46.2957 578.38C-7.88794 582.282 27.2284 559.386 57.5984 538.861C90.8999 516.354 129.598 491.291 171.679 501.292C192.605 506.261 211.597 517.543 232.856 521.313C249.593 524.284 266.312 521.172 280.06 510.989C306.699 491.23 316.54 454.687 314.978 422.962C313.131 385.313 298.373 349.49 277.19 318.668C225.555 243.543 140.459 204.107 64.1976 159.287C24.6419 136.042 -14.2522 110.436 -46.176 77.16C-61.3159 61.3776 -73.7644 43.6607 -86.7445 26.1364C-98.6068 10.1208 -111.45 -5.82378 -128.248 -16.9145C-160.834 -38.4334 -199.625 -32.1454 -235.999 -26.9447C-255.134 -24.2083 -274.611 -21.6998 -293.927 -24.0288C-318.277 -26.969 -339.909 -38.9095 -359.024 -53.7641C-394.623 -81.4253 -423.208 -120.793 -466.405 -137.519C-497.8 -149.673 -538.311 -147.626 -560.085 -118.894C-583.707 -87.7229 -575.541 -43.7902 -558.333 -11.8291C-537.947 26.0436 -505.611 56.4777 -489.373 96.7358C-481.603 115.993 -477.93 136.961 -482.509 157.464C-482.924 159.33 -480.091 160.335 -479.67 158.448C-471.026 119.733 -488.314 85.1092 -509.464 54.4956C-533.413 19.831 -564.137 -13.3569 -570.456 -55.3326C-573.389 -74.807 -571.305 -96.1109 -560.527 -113.019C-550.155 -129.294 -532.839 -138.737 -513.931 -141.053Z" fill="url(#paint7_linear_142_3190)"/>
<path d="M-491.459 -116.9C-450.363 -121.82 -416.395 -94.9737 -388.197 -68.6339C-359.008 -41.3706 -328.752 -10.1917 -287.165 -4.64504C-252.339 -0.00187742 -218.132 -12.0333 -183.418 -12.1954C-165.27 -12.2795 -147.552 -8.47662 -132.234 1.59614C-116.183 12.1518 -104.09 27.5519 -92.8216 42.8522C-81.2757 58.5297 -70.0853 74.3104 -56.6283 88.4505C-42.8081 102.972 -27.4957 116.023 -11.4159 127.972C56.4158 178.375 137.61 208.699 201.48 264.74C229.03 288.913 252.71 318.214 267.377 351.998C280.966 383.296 287.42 420.256 276.136 453.241C271.114 467.921 262.668 482.046 250.05 491.397C234.666 502.79 216.016 503.276 198.137 498.044C179.55 492.607 162.219 482.881 142.854 480.206C126.28 477.899 109.637 481.255 94.2244 487.406C60.6168 500.826 33.7238 526.109 1.33438 541.812C-15.1616 549.809 -33.3562 555.498 -51.8768 554.025C-71.6226 552.452 -89.0056 542.527 -103.307 529.265C-117.876 515.774 -129.592 499.529 -141.328 483.61C-153.238 467.455 -165.698 451.791 -179.294 437.012C-206.83 407.084 -238.055 380.523 -272.04 358.184C-306.686 335.409 -347.405 318.278 -383.018 294.829C-413.773 274.576 -441.188 248.76 -454.131 212.833C-460.032 196.468 -461.787 178.885 -458.132 161.813C-457.876 160.619 -459.077 159.869 -459.734 160.158C-460.311 160.411 -460.983 160.911 -461.198 161.972C-467.806 195.005 -454.846 227.542 -434.411 253.301C-408.647 285.753 -371.909 306.076 -335.887 325.145C-316.493 335.412 -297.344 345.887 -278.937 357.599C-260.919 369.064 -243.575 381.569 -227.099 395.423C-194.322 422.984 -166.369 454.722 -140.997 489.109C-119.191 518.662 -93.6583 552.524 -54.2769 556.793C-18.3074 560.705 14.7133 539.353 43.1592 520.124C74.3087 499.068 110.537 475.372 149.951 484.557C169.591 489.129 187.379 499.714 207.282 503.336C222.973 506.194 238.677 503.415 251.643 493.936C276.651 475.627 286.051 441.454 284.701 411.802C283.103 376.524 269.392 342.93 249.621 314.002C201.458 243.535 121.836 206.494 50.4183 164.58C13.2991 142.797 -23.2228 118.83 -53.2225 87.6641C-67.432 72.9013 -79.1254 56.3325 -91.2739 39.9042C-102.38 24.8848 -114.375 9.91571 -130.066 -0.555034C-160.531 -20.8904 -196.851 -15.1599 -230.967 -10.2714C-248.925 -7.69795 -267.199 -5.30657 -285.333 -7.44216C-308.133 -10.1301 -328.395 -21.239 -346.308 -35.1208C-379.709 -61.0037 -406.449 -97.8732 -446.879 -113.656C-476.254 -125.122 -514.237 -123.325 -534.77 -96.5336C-557.047 -67.4651 -549.576 -26.2559 -533.534 3.71007C-514.497 39.2764 -484.14 67.7943 -468.849 105.514C-461.519 123.592 -458.036 143.284 -462.33 162.548C-462.746 164.413 -459.912 165.419 -459.492 163.532C-451.346 126.987 -467.473 94.9579 -487.378 66.1737C-509.879 33.6352 -538.572 2.50309 -544.495 -36.6416C-547.265 -54.929 -545.304 -74.9609 -535.129 -90.8127C-525.382 -106.008 -509.151 -114.779 -491.459 -116.9Z" fill="url(#paint8_linear_142_3190)"/>
<path d="M-468.985 -92.7472C-430.605 -97.2256 -398.979 -72.0286 -372.674 -47.4289C-345.502 -22.0194 -317.263 6.89386 -278.517 11.9541C-246.04 16.1949 -214.164 4.962 -181.791 4.87877C-164.857 4.83541 -148.364 8.45894 -134.113 17.9169C-119.181 27.8267 -107.941 42.2295 -97.4388 56.5102C-86.6993 71.1125 -76.2563 85.7781 -63.7115 98.9246C-50.8104 112.443 -36.5246 124.594 -21.5269 135.72C41.6886 182.614 117.316 210.875 176.776 263.115C202.445 285.666 224.5 312.999 238.135 344.509C250.762 373.687 256.718 408.127 246.129 438.836C241.413 452.511 233.492 465.66 221.674 474.312C207.224 484.885 189.776 485.116 173.104 480.151C155.794 474.998 139.604 465.947 121.51 463.59C106.135 461.575 90.7205 464.76 76.4494 470.489C45.1421 483.063 20.0725 506.64 -10.1553 521.233C-25.5648 528.673 -42.5707 533.928 -59.854 532.452C-78.3096 530.873 -94.5003 521.453 -107.805 508.988C-121.247 496.409 -132.09 481.35 -142.973 466.589C-154.065 451.544 -165.688 436.971 -178.358 423.217C-204.022 395.36 -233.116 370.636 -264.777 349.844C-296.855 328.776 -335 312.721 -368.15 290.86C-396.872 271.919 -422.152 248.056 -434.168 214.345C-439.623 199.051 -441.238 182.631 -437.83 166.697C-437.593 165.587 -438.61 164.853 -439.277 164.958C-439.904 165.056 -440.61 165.456 -440.82 166.474C-447.112 197.348 -435.244 227.873 -416.247 252.067C-392.404 282.413 -358.139 301.374 -324.604 319.131C-306.513 328.71 -288.686 338.513 -271.523 349.4C-254.733 360.05 -238.553 371.643 -223.175 384.549C-192.611 410.201 -166.495 439.75 -142.858 471.797C-122.551 499.327 -98.8773 530.936 -62.2627 535.208C-28.7322 539.131 2.19353 519.322 28.7155 501.39C57.7129 481.784 91.4722 459.456 128.219 467.824C146.572 472 163.156 481.888 181.704 485.362C196.349 488.107 211.039 485.662 223.223 476.884C246.598 460.023 255.557 428.22 254.421 400.641C253.071 367.734 240.407 336.371 222.05 309.337C177.358 243.527 103.211 208.883 36.6362 169.874C1.9525 149.553 -32.197 127.225 -60.2719 98.1702C-73.5511 84.4263 -84.4891 69.0073 -95.8061 53.6749C-106.156 39.6518 -117.303 25.6572 -131.886 15.8065C-160.232 -3.34536 -194.08 1.82757 -225.936 6.40396C-242.718 8.81442 -259.788 11.0878 -276.741 9.14648C-297.991 6.71001 -316.884 -3.56736 -333.593 -16.4754C-364.797 -40.58 -389.692 -74.9506 -427.356 -89.7905C-454.711 -100.568 -490.168 -99.0222 -509.458 -74.1711C-530.391 -47.2053 -523.616 -8.71864 -508.738 19.2513C-491.05 52.5112 -462.672 79.1129 -448.329 114.296C-441.439 131.193 -438.145 149.609 -442.155 167.635C-442.57 169.5 -439.736 170.506 -439.317 168.619C-431.669 134.243 -446.634 104.81 -465.294 77.854C-486.345 47.4424 -513.009 18.3634 -518.536 -17.9477C-521.141 -35.0472 -519.303 -53.8071 -509.733 -68.6036C-500.608 -82.7221 -485.463 -90.8223 -468.985 -92.7472Z" fill="url(#paint9_linear_142_3190)"/>
<path d="M-446.512 -68.5946C-410.848 -72.6317 -381.563 -49.0829 -357.151 -26.2244C-331.995 -2.66955 -305.776 23.9798 -269.869 28.5536C-239.742 32.3904 -210.195 21.9578 -180.163 21.9526C-164.444 21.95 -149.175 25.394 -135.992 34.2373C-122.181 43.5019 -111.793 56.9068 -102.055 70.1678C-92.1231 83.694 -82.4275 97.2455 -70.7931 109.399C-58.812 121.915 -45.5519 133.166 -31.6363 143.468C26.9637 186.854 97.0238 213.053 152.074 261.489C175.86 282.419 196.29 307.782 208.896 337.02C220.561 364.078 226.02 395.996 216.123 424.432C211.713 437.102 204.317 449.275 193.299 457.228C179.784 466.98 163.538 466.956 148.071 462.258C132.038 457.388 116.989 449.011 100.166 446.973C85.9904 445.248 71.8051 448.265 58.675 453.571C29.6681 465.299 6.42284 487.168 -21.6451 500.654C-35.969 507.536 -51.7844 512.359 -67.8304 510.878C-84.9949 509.293 -99.9952 500.379 -112.302 488.71C-124.616 477.044 -134.588 463.171 -144.618 449.568C-154.892 435.635 -165.677 422.149 -177.422 409.421C-201.214 383.636 -228.178 360.75 -257.514 341.503C-287.023 322.142 -322.594 307.161 -353.282 286.891C-379.969 269.263 -403.116 247.351 -414.205 215.855C-419.214 201.634 -420.689 186.376 -417.529 171.579C-417.31 170.554 -418.135 169.827 -418.822 169.757C-419.492 169.688 -420.239 169.999 -420.443 170.977C-426.419 199.691 -415.643 228.204 -398.084 250.832C-376.161 279.072 -344.369 296.671 -313.322 313.115C-296.533 322.008 -280.028 331.137 -264.108 341.2C-248.546 351.036 -233.531 361.716 -219.252 373.674C-190.901 397.417 -166.621 424.777 -144.718 454.484C-125.911 479.991 -104.096 509.347 -70.2469 513.622C-39.1547 517.555 -10.3237 499.289 14.2733 482.654C41.1186 464.499 72.4077 443.538 106.487 451.09C123.554 454.869 138.934 464.06 156.126 467.387C169.727 470.02 183.4 467.907 194.802 459.832C216.546 444.422 225.065 414.988 224.142 389.482C223.041 358.945 211.423 329.812 194.479 304.673C153.258 243.519 84.5848 211.272 22.8538 175.169C-9.39424 156.309 -41.1706 135.62 -67.3214 108.676C-79.6702 95.9518 -89.8539 81.6816 -100.339 67.4451C-109.934 54.4183 -120.232 41.3992 -133.707 32.1684C-159.933 14.2001 -191.31 18.8164 -220.907 23.0798C-236.513 25.3281 -252.379 27.4836 -268.151 25.7356C-287.851 23.5497 -305.374 14.1056 -320.881 2.17042C-349.889 -20.1558 -372.939 -52.0284 -407.836 -65.9258C-433.171 -76.015 -466.1 -74.7204 -484.149 -51.809C-503.737 -26.9458 -497.658 8.81736 -483.945 34.7922C-467.605 65.7457 -441.206 90.4312 -427.811 123.076C-421.361 138.795 -418.256 155.934 -421.983 172.72C-422.397 174.585 -419.563 175.59 -419.144 173.704C-411.995 141.498 -425.798 114.661 -443.214 89.532C-462.817 61.2473 -487.45 34.2225 -492.583 0.744064C-495.023 -15.1684 -493.307 -32.6563 -484.342 -46.3959C-475.835 -59.4375 -461.775 -66.8657 -446.512 -68.5946Z" fill="url(#paint10_linear_142_3190)"/>
<path d="M-398.97 178.788C-384.852 115.03 -457.667 77.3788 -466.625 19.4351C-468.901 4.71057 -467.308 -11.5054 -458.947 -24.1897C-451.062 -36.1518 -438.087 -42.908 -424.039 -44.441C-391.091 -48.0367 -364.147 -26.1372 -341.628 -5.01797C-318.49 16.6822 -294.288 41.0668 -261.221 45.1542C-233.443 48.5886 -206.227 38.9546 -178.535 39.0275C-164.03 39.0656 -149.987 42.3301 -137.871 50.5586C-125.18 59.1782 -115.643 71.5859 -106.672 83.8263C-97.5473 96.2775 -88.5983 108.715 -77.8752 119.875C-66.8131 131.388 -54.5796 141.738 -41.7461 151.218C12.2376 191.095 76.732 215.232 127.371 259.867C149.276 279.174 168.081 302.568 179.655 329.534C190.359 354.472 195.319 383.87 186.115 410.03C182.012 421.696 175.14 432.893 164.923 440.146C152.342 449.078 137.299 448.799 123.038 444.367C108.282 439.781 94.3751 432.079 78.8225 430.359C65.8459 428.925 52.8902 431.773 40.9012 436.657C14.1946 447.538 -7.22727 467.701 -33.1336 480.077C-46.3711 486.401 -60.9977 490.791 -75.8055 489.307C-91.6798 487.716 -105.489 479.306 -116.798 468.435C-127.984 457.682 -137.084 444.994 -146.261 432.55C-155.717 419.729 -165.664 407.332 -176.484 395.628C-198.404 371.915 -223.238 350.866 -250.25 333.166C-300.719 300.095 -372.442 280.174 -394.24 217.369C-398.804 204.219 -400.138 190.124 -397.226 176.464C-396.829 174.598 -399.662 173.591 -400.065 175.48C-405.725 202.034 -396.042 228.536 -379.92 249.599C-359.916 275.732 -330.598 291.97 -302.039 307.102C-271.428 323.321 -242.003 340.519 -215.327 362.801C-189.189 384.634 -166.746 409.805 -146.577 437.172C-129.271 460.656 -109.313 487.759 -78.2307 492.036C-49.5775 495.979 -22.8414 479.257 -0.169303 463.918C24.5231 447.213 53.3436 427.62 84.7558 434.354C100.536 437.736 114.712 446.231 130.548 449.411C143.104 451.931 155.761 450.152 166.382 442.779C186.493 428.819 194.571 401.754 193.862 378.32C193.009 350.155 182.438 323.251 166.907 300.007C129.158 243.51 65.9586 213.66 9.07105 180.461C-20.7414 163.064 -50.1446 144.014 -74.3714 119.179C-85.7898 107.474 -95.2183 94.3526 -104.872 81.213C-113.711 69.1824 -123.16 57.1379 -135.528 48.5271C-159.635 31.7415 -188.539 35.8011 -215.877 39.7523C-230.307 41.8376 -244.969 43.8761 -259.559 42.3215C-277.709 40.387 -293.863 31.7753 -308.167 20.8121C-334.978 0.264251 -356.183 -29.1095 -388.313 -42.0643C-411.628 -51.4642 -442.029 -50.4212 -458.837 -29.4502C-477.081 -6.6888 -471.697 26.35 -459.149 50.3297C-444.158 78.9768 -419.738 101.745 -407.29 131.854C-401.28 146.392 -398.365 162.255 -401.808 177.802C-402.222 179.67 -399.388 180.675 -398.97 178.788Z" fill="url(#paint11_linear_142_3190)"/>
</g>
<defs>
<linearGradient id="paint0_linear_142_3190" x1="527.368" y1="207.889" x2="-757" y2="207.889" gradientUnits="userSpaceOnUse">
<stop stop-color="#FC5B15"/>
<stop offset="1" stop-color="#FF9465"/>
</linearGradient>
<linearGradient id="paint1_linear_142_3190" x1="497.046" y1="209.209" x2="-730.96" y2="209.209" gradientUnits="userSpaceOnUse">
<stop stop-color="#FC5B15"/>
<stop offset="1" stop-color="#FF9465"/>
</linearGradient>
<linearGradient id="paint2_linear_142_3190" x1="466.726" y1="210.526" x2="-704.921" y2="210.526" gradientUnits="userSpaceOnUse">
<stop stop-color="#FC5B15"/>
<stop offset="1" stop-color="#FF9465"/>
</linearGradient>
<linearGradient id="paint3_linear_142_3190" x1="436.409" y1="211.849" x2="-678.881" y2="211.849" gradientUnits="userSpaceOnUse">
<stop stop-color="#FC5B15"/>
<stop offset="1" stop-color="#FF9465"/>
</linearGradient>
<linearGradient id="paint4_linear_142_3190" x1="406.087" y1="213.169" x2="-652.845" y2="213.169" gradientUnits="userSpaceOnUse">
<stop stop-color="#FC5B15"/>
<stop offset="1" stop-color="#FF9465"/>
</linearGradient>
<linearGradient id="paint5_linear_142_3190" x1="375.77" y1="214.492" x2="-626.805" y2="214.492" gradientUnits="userSpaceOnUse">
<stop stop-color="#FC5B15"/>
<stop offset="1" stop-color="#FF9465"/>
</linearGradient>
<linearGradient id="paint6_linear_142_3190" x1="345.455" y1="215.812" x2="-600.772" y2="215.812" gradientUnits="userSpaceOnUse">
<stop stop-color="#FC5B15"/>
<stop offset="1" stop-color="#FF9465"/>
</linearGradient>
<linearGradient id="paint7_linear_142_3190" x1="315.136" y1="217.136" x2="-574.741" y2="217.136" gradientUnits="userSpaceOnUse">
<stop stop-color="#FC5B15"/>
<stop offset="1" stop-color="#FF9465"/>
</linearGradient>
<linearGradient id="paint8_linear_142_3190" x1="284.827" y1="218.46" x2="-548.704" y2="218.46" gradientUnits="userSpaceOnUse">
<stop stop-color="#FC5B15"/>
<stop offset="1" stop-color="#FF9465"/>
</linearGradient>
<linearGradient id="paint9_linear_142_3190" x1="254.517" y1="219.786" x2="-522.672" y2="219.786" gradientUnits="userSpaceOnUse">
<stop stop-color="#FC5B15"/>
<stop offset="1" stop-color="#FF9465"/>
</linearGradient>
<linearGradient id="paint10_linear_142_3190" x1="224.209" y1="221.114" x2="-496.644" y2="221.114" gradientUnits="userSpaceOnUse">
<stop stop-color="#FC5B15"/>
<stop offset="1" stop-color="#FF9465"/>
</linearGradient>
<linearGradient id="paint11_linear_142_3190" x1="193.905" y1="222.442" x2="-470.617" y2="222.442" gradientUnits="userSpaceOnUse">
<stop stop-color="#FC5B15"/>
<stop offset="1" stop-color="#FF9465"/>
</linearGradient>
</defs>
</svg>
